# xmcd
#
# Track frame offsets: 
#        183
#        14750
#        28675
#        42835
#        57078
#        70165
#        82635
#        96570
#        109475
#        123195
#        134333
#        147365
#        159303
#        172733
#        186698
#        200570
#        212495
#        226730
#        240650
#        254773
#        267068
#        278495
#        290925
#        301843
#        314763
#        326380
#
# Disc length: 4522 seconds
#
# Revision: 2
# Processed by: cddbd v1.5.2PL0 Copyright (c) Steve Scherf et al.
# Submitted via: ExactAudioCopyFreeDBPlugin 1.0
#
DISCID=7e11a81a
DTITLE=Buddy and Ella Johnson - Buddy and Ella Johnson:  1953-1964 [Bear F
DTITLE=amily box set]
DYEAR=1992
DGENRE=Rhythm and Blues
TTITLE0=That's How I Feel About You
TTITLE1=Ecstasy
TTITLE2=Hittin' on Me
TTITLE3=Jit Jit
TTITLE4=I'm Just Your Fool
TTITLE5=A-12
TTITLE6=I Never Had it So Good
TTITLE7=Ain'tcha Got Me Where You Want Me
TTITLE8=Bring it Up Van Dyke
TTITLE9=My Old Man
TTITLE10=One More Time
TTITLE11=Let's Start All Over Again
TTITLE12=Shut Your Big Mouth
TTITLE13=Mush Mouth (alternate version)
TTITLE14=Mush Mouth
TTITLE15=Any Day Now
TTITLE16=A Pretty Girl (A Cadillac and Some Money)
TTITLE17=Ain't But One
TTITLE18=There's No One Like You
TTITLE19=Thinking it Over
TTITLE20=If You'd Said Yes
TTITLE21=It Used to Hurt Me
TTITLE22=Well Do It
TTITLE23=Bitter Sweet
TTITLE24=Crazy 'Bout a Sxaphone
TTITLE25=Send Out for a Bucket of Beer
EXTD=
EXTT0=
EXTT1=
EXTT2=
EXTT3=
EXTT4=
EXTT5=
EXTT6=
EXTT7=
EXTT8=
EXTT9=
EXTT10=
EXTT11=
EXTT12=
EXTT13=
EXTT14=
EXTT15=
EXTT16=
EXTT17=
EXTT18=
EXTT19=
EXTT20=
EXTT21=
EXTT22=
EXTT23=
EXTT24=
EXTT25=
PLAYORDER=
